HIERARCHY
ROOT simHips
{
  OFFSET 15.006 99.4359 -2.54788
  CHANNELS 6 Xposition Yposition Zposition Zrotation Xrotation Yrotation
  JOINT simSpine
  {
    OFFSET -0.000355721 21.3001 -0.016921
    CHANNELS 3 Zrotation Xrotation Yrotation
    JOINT simLeftArm
    {
      OFFSET 13.5181 21.3012 0
      CHANNELS 3 Zrotation Xrotation Yrotation
      JOINT simLeftForeArm
      {
        OFFSET 24.5783 0 0
        CHANNELS 3 Zrotation Xrotation Yrotation
        JOINT simLeftHand
        {
          OFFSET 24.5783 0 0
          CHANNELS 3 Zrotation Xrotation Yrotation
          End Site
          {
            OFFSET 7.32568 1.52588e-005 0.0169305
          }
        }
      }
    }
    JOINT simHead
    {
      OFFSET 0 27.4458 -0.00489235
      CHANNELS 3 Zrotation Xrotation Yrotation
      End Site
      {
        OFFSET 0 0 0
      }
    }
    JOINT simRightArm
    {
      OFFSET -13.5174 21.3012 0
      CHANNELS 3 Zrotation Xrotation Yrotation
      JOINT simRightForeArm
      {
        OFFSET -24.5783 0 0
        CHANNELS 3 Zrotation Xrotation Yrotation
        JOINT simRightHand
        {
          OFFSET -24.5783 0 0
          CHANNELS 3 Zrotation Xrotation Yrotation
          End Site
          {
            OFFSET -7.32568 1.52588e-005 0.0169305
          }
        }
      }
    }
  }
  JOINT simRightUpLeg
  {
    OFFSET -8.44614 -9.41038 0.835684
    CHANNELS 3 Zrotation Xrotation Yrotation
    JOINT simRightLeg
    {
      OFFSET 0 -40.9639 0
      CHANNELS 3 Zrotation Xrotation Yrotation
      JOINT simRightFoot
      {
        OFFSET 0 -40.9639 0
        CHANNELS 3 Zrotation Xrotation Yrotation
        End Site
        {
          OFFSET 0.50614 -9.67405 14.6709
        }
      }
    }
  }
  JOINT simLeftUpLeg
  {
    OFFSET 8.44614 -9.41038 0.835684
    CHANNELS 3 Zrotation Xrotation Yrotation
    JOINT simLeftLeg
    {
      OFFSET 0 -40.9639 0
      CHANNELS 3 Zrotation Xrotation Yrotation
      JOINT simLeftFoot
      {
        OFFSET 0 -40.9639 0
        CHANNELS 3 Zrotation Xrotation Yrotation
        End Site
        {
          OFFSET -0.50614 -9.67405 14.6709
        }
      }
    }
  }
}
MOTION
Frames:	11
Frame Time:	0.0333333
15.006 99.4359 -2.54788 0 0 -0 0 0 -2.13443e-007 -6.83019e-006 -1.70755e-006 -1.53679e-005 6.83019e-006 1.70755e-006 -0.000159334 1.01778e-013 -1.72255e-020 -1.01618e-005 -0 0 2.40124e-007 6.83019e-006 -8.53773e-007 5.12264e-006 -6.83019e-006 -5.97642e-006 -1.45685e-005 -5.75742e-013 6.83019e-006 9.42256e-006 -4.06973 4.16904 0.23742 -3.50557e-005 5.03208 0.0536705 4.09664 -9.19852 0.365464 2.88322 6.66881 -0.168312 6.50755e-005 0.0211207 -0.00013841 -2.88336 -6.68993 -0.168653 
15.0166 99.4623 -2.53029 0.0460256 -0.0134693 -0.131171 -0.17802 0.100928 -0.0698688 -0.00710799 -0.118274 0.253664 0.014559 -0.0425037 -0.000159334 -0.0163362 -0.0407313 0.0181467 0.14475 -0.0347325 0.359189 0.214397 0.0378583 0.103004 -0.0487726 -0.00129621 0.0460995 -0.0311701 0.0124869 0.0300289 -4.09099 3.58533 0.568131 0.0511321 6.3206 -0.193167 3.96668 -9.96076 0.115695 2.79191 6.37997 -0.171968 0.0337702 0.78443 0.0338115 -2.85454 -7.18495 -0.0465953 
15.0269 99.4604 -2.46356 0.0942823 -0.0594705 -0.243198 -0.331669 0.277664 -0.132817 -0.0955509 -0.352052 0.475084 0.0982631 -0.0137322 -0.000159334 -0.0387002 -0.0489397 0.0386858 0.276469 -0.0777202 0.610968 0.459804 0.0763241 0.153378 -0.106421 -0.0158039 0.135218 -0.0623409 0.0126623 0.0868257 -4.13696 3.02606 0.811247 0.131261 7.7714 -0.494454 4.04252 -11.0675 -0.114726 2.70782 6.18132 -0.151343 0.0603913 1.54738 0.0722573 -2.96106 -7.94544 0.0252542 
15.0424 99.4405 -2.30985 0.130934 -0.0993688 -0.24611 -0.410569 0.458378 -0.218633 -0.26632 -0.33887 0.568569 0.103374 -0.0206206 -0.000159334 -0.00980557 -0.064809 0.014815 0.299062 -0.00168527 0.810005 0.699179 0.212002 0.0623173 -0.181252 -0.0722894 0.368733 -0.0723631 0.016379 0.0947831 -4.22188 2.7151 0.928663 0.221548 8.81934 -0.709155 4.19582 -12.0233 -0.176698 2.64009 5.79883 -0.0140034 0.0498333 2.6773 0.0877703 -2.92852 -8.79916 -0.0731481 
15.0997 99.4074 -2.08096 0.148114 -0.11017 -0.161395 -0.414741 0.587076 -0.360598 -0.6002 -0.692184 0.734192 0.143209 -0.102966 -0.000142968 0.0719217 -0.120476 0.11271 0.312771 0.177709 0.932574 1.10223 0.415864 -0.165978 -0.364023 -0.227481 0.970345 -0.189191 0.0600158 0.0598245 -4.30842 2.6081 1.05378 0.279207 9.53116 -0.891752 4.44974 -12.9212 -0.205595 2.57539 5.32361 0.0562968 0.0508383 3.98682 0.0823073 -2.81103 -9.6602 -0.175185 
15.179 99.364 -1.77332 0.148905 -0.0822248 -0.0334556 -0.414965 0.658138 -0.457793 -1.01786 -0.968416 0.827557 0.145874 -0.178019 -0.212381 0.109524 -0.165082 -0.0453424 0.362789 0.452014 0.985989 1.78132 1.17744 -0.443614 -0.731002 -0.242464 2.16838 -0.329964 0.229388 0.226433 -4.35874 2.70825 1.16964 0.291129 9.86297 -1.02884 4.69143 -13.591 -0.252807 2.51108 4.81507 0.030167 0.0653683 5.35664 0.0875526 -2.67461 -10.4965 -0.22999 
15.2795 99.3203 -1.41738 0.1273 -0.00549086 0.0620388 -0.396374 0.788947 -0.515371 -1.5935 -1.31503 0.954057 0.242959 -0.20556 -0.959659 0.27184 -0.110181 -0.378305 0.417245 0.6789 0.995999 2.83492 2.99736 -0.644968 -1.45163 -0.159397 4.52159 -0.646415 0.65771 0.602849 -4.40743 2.81195 1.22373 0.311374 10.0766 -1.1289 4.8632 -14.0537 -0.249402 2.46117 4.33229 -0.0315238 0.0700792 6.63358 0.104186 -2.58923 -11.2798 -0.268501 
15.4101 99.2668 -1.00849 0.133703 0.129392 0.0363596 -0.440219 1.00551 -0.573769 -2.38728 -1.15755 1.36459 0.199262 -0.405445 -2.85358 0.84389 0.0473004 -0.994476 0.420366 0.770183 1.1796 4.64109 4.96027 -0.938075 -2.50428 -0.557441 8.48179 -1.07709 1.03298 1.32107 -4.5364 2.79024 1.29711 0.377596 10.4502 -1.23528 5.05409 -14.6201 -0.19483 2.32758 3.93961 -0.0873052 0.104354 7.7213 0.184002 -2.42715 -12.0153 -0.257275 
15.5644 99.1913 -0.544833 0.145594 0.355862 -0.139334 -0.633081 1.32153 -0.655251 -3.53808 -1.376 2.2186 0.239799 -0.533501 -5.96505 1.5698 0.387852 -2.14942 0.574508 0.647231 1.3796 7.29224 7.8734 -0.986369 -3.62624 -1.0326 13.808 -1.66974 1.46588 3.03358 -4.6811 2.61168 1.49632 0.451401 10.9069 -1.33169 5.14487 -15.0576 -0.168843 2.14705 3.58828 -0.1408 0.15741 8.64158 0.312295 -2.27978 -12.7068 -0.18369 
15.7637 99.1072 -0.010035 0.153623 0.626735 -0.371826 -0.839552 1.7447 -0.794444 -5.30679 -1.69329 3.58406 0.0987854 -0.713328 -10.9053 2.51589 0.938896 -3.60519 0.736071 0.58333 1.59247 10.5412 11.0242 -0.847812 -4.47426 -2.03245 20.3727 -2.6421 1.90537 5.38721 -4.85498 2.5134 1.70744 0.524988 11.0519 -1.37031 5.09271 -14.9281 -0.188263 1.93712 3.28849 -0.133548 0.201787 9.45196 0.465941 -2.11772 -13.3294 -0.111755 
16.0102 99.0233 0.590422 0.165144 0.976458 -0.700537 -1.03063 2.2374 -1.03456 -8.05927 -3.10682 5.78962 -0.0550833 -0.980351 -17.5817 3.50161 1.63165 -5.26077 0.890141 0.615528 1.79145 14.3889 13.7011 -0.570472 -5.30343 -3.47788 27.848 -3.92694 2.37465 8.43095 -5.0801 2.40009 1.98809 0.606122 10.9778 -1.31718 4.8348 -14.1907 -0.182053 1.71694 2.99023 -0.024316 0.201096 10.1639 0.62835 -1.96537 -13.7571 -0.0796062 
